<?xml version="1.0" encoding="UTF-8"?>
<svg version="1.1" viewBox="0 0 1600 1600" width="1280" height="1280" xmlns="http://www.w3.org/2000/svg">
<path transform="translate(626 669)" d="m0 0c0.868 0.00182 1.74 0.00365 2.63 0.00552 21.6 0.0759 42 2.29 62.8 8.31 1.07 0.295 2.13 0.59 3.23 0.895 31.7 9.59 59 31.3 75.1 60.2 22.9 43 24.4 99.1 10.6 145-10.8 33.4-32.8 59.5-64 75.9-27.9 14.2-58.8 18.2-89.7 18.3-0.912 0.00101-1.82 0.00201-2.76 0.00305-14-0.0105-27.7-0.536-41.5-3.25-0.755-0.145-1.51-0.289-2.29-0.438-33.9-6.69-67.7-23.2-87.6-52.3-1.38-2.07-2.73-4.15-4.06-6.25-0.607-0.925-0.607-0.925-1.23-1.87-9.41-14.6-14.1-31.3-17.8-48.1-0.179-0.789-0.359-1.58-0.543-2.39-5.56-25.6-5.03-57.1 0.543-82.6 0.177-0.813 0.354-1.63 0.536-2.46 8-35.4 25.9-64.4 56.5-84.5 1.21-0.826 1.21-0.826 2.44-1.67 14.7-9.49 32.3-14.9 49.2-18.5 0.753-0.159 1.51-0.318 2.28-0.481 15.1-2.97 30.2-3.77 45.6-3.71zm-44.8 86.9c-16.9 17.9-18.2 41.8-18.1 65.1 0.00316 3.18-0.0204 6.35-0.0457 9.53-0.0707 22.6 3.04 43.8 19 61 13.6 12.7 31.3 16.1 49.3 15.8 14.1-0.817 27.1-4.96 38-14 0.623-0.51 1.25-1.02 1.89-1.55 14-12.7 18.8-31.7 20-49.9 1.28-31.2 2.17-63-20.2-87.4-4.31-4.08-9.35-6.68-14.7-9.19-0.831-0.393-1.66-0.786-2.52-1.19-23.8-9.91-53.6-5.52-72.7 11.8z" fill="#000100"/>
<path transform="translate(211,681)" d="m0 0c3.16 1.84 5.57 3.35 7.81 6.25 2.77 3.38 5.83 6.14 9.15 8.98 2.07 1.8 4.07 3.66 6.04 5.58 0.577 0.563 1.16 1.13 1.75 1.71 1.25 1.48 1.25 1.48 1.25 3.48 0.572 0.247 1.14 0.495 1.73 0.75 2.62 1.44 4.41 3.13 6.52 5.25 1.06 1.05 1.06 1.05 2.14 2.12 1.61 1.88 1.61 1.88 1.61 3.88 1.32 0.66 2.64 1.32 4 2v2c0.99 0.33 1.98 0.66 3 1 4.77 4.32 4.77 4.32 6 8 0.99 0.33 1.98 0.66 3 1v2c1.32 0.66 2.64 1.32 4 2v2c0.99 0.33 1.98 0.66 3 1 1.71 1.62 3.37 3.3 5 5 1.06 1.06 2.12 2.12 3.18 3.17 0.579 0.576 1.16 1.15 1.75 1.75 0.618 0.615 1.24 1.23 1.87 1.86 6.74 6.7 13.5 13.4 20.2 20.1 4.07 4.06 8.14 8.11 12.2 12.2 3.95 3.92 7.89 7.85 11.8 11.8 1.5 1.5 3.01 3 4.51 4.49 2.1 2.08 4.19 4.17 6.28 6.26 0.628 0.621 1.26 1.24 1.9 1.88 4.26 4.28 4.26 4.28 4.26 6.51 0.531 0.206 1.06 0.413 1.61 0.625 3.4 1.95 5.9 4.6 8.64 7.38 0.554 0.547 1.11 1.09 1.68 1.66 4.07 4.09 4.07 4.09 4.07 6.34 0.56 0.235 1.12 0.47 1.7 0.712 2.87 1.6 4.84 3.57 7.16 5.89 0.469 0.465 0.938 0.931 1.42 1.41 1.54 1.53 3.08 3.07 4.61 4.61 1.07 1.07 2.14 2.14 3.21 3.21 2.24 2.24 4.47 4.48 6.71 6.72 2.87 2.88 5.74 5.75 8.62 8.62 2.21 2.2 4.42 4.41 6.62 6.62 1.06 1.06 2.12 2.12 3.18 3.18 1.48 1.47 2.95 2.96 4.42 4.44 0.841 0.842 1.68 1.68 2.55 2.55 1.8 2.05 1.8 2.05 1.8 4.05 0.557 0.227 1.11 0.454 1.69 0.688 2.97 1.69 5.03 3.78 7.31 6.31v2c0.99 0.33 1.98 0.66 3 1v2c1.32 0.66 2.64 1.32 4 2v2c0.588 0.263 1.18 0.526 1.78 0.798 2.32 1.26 3.84 2.58 5.7 4.44 0.671 0.667 1.34 1.33 2.03 2.02 0.726 0.731 1.45 1.46 2.2 2.22 0.773 0.771 1.55 1.54 2.34 2.34 2.56 2.55 5.11 5.11 7.65 7.67 1.78 1.78 3.55 3.55 5.33 5.33 3.72 3.73 7.45 7.46 11.2 11.2 4.29 4.3 8.58 8.6 12.9 12.9 4.14 4.14 8.28 8.29 12.4 12.4 1.76 1.76 3.51 3.52 5.27 5.28 2.46 2.46 4.92 4.93 7.37 7.4 1.09 1.09 1.09 1.09 2.19 2.19 3.77 3.79 7.28 7.66 10.7 11.8 1.71 1.58 1.71 1.58 3.31 2.75 0.887 0.743 1.77 1.48 2.69 2.25v2c-19.1 0.813-38.1 1.15-57.2 1.13-2.8 8.11e-4 -5.6 0.00311-8.4 0.00531-6.73 0.00439-13.5 0.00351-20.2 5.87e-4 -5.47-0.00228-10.9-0.00256-16.4-0.00148-0.784 1.53e-4 -1.57 3.06e-4 -2.38 4.64e-4 -1.59 3.2e-4 -3.19 6.44e-4 -4.78 9.73e-4 -14.8 0.00283-29.7-4e-4 -44.5-0.0058-12.7-0.00449-25.5-0.00367-38.2 9.19e-4 -14.8 0.00534-29.7 0.00746-44.5 0.00439-1.58-3.19e-4 -3.16-6.33e-4 -4.74-9.43e-4 -0.777-1.54e-4 -1.55-3.09e-4 -2.35-4.68e-4 -5.48-8.64e-4 -11 5.94e-4 -16.4 0.00295-6.65 0.0028-13.3 0.00206-20-0.00328-3.39-0.00264-6.79-0.00364-10.2-3.51e-4 -3.67 0.00271-7.34-6.65e-4 -11-0.00568-1.08 0.00223-2.17 0.00446-3.28 0.00676-0.974-0.00261-1.95-0.00522-2.95-0.0079-0.847-1.62e-4 -1.69-3.25e-4 -2.57-4.92e-4 -1.91-0.125-1.91-0.125-2.91-1.13-0.0972-1.67-0.124-3.34-0.123-5.01-0.00199-1.09-0.00398-2.18-0.00603-3.31 0.00291-1.21 0.00583-2.43 0.00883-3.68-8.54e-4 -1.28-0.00171-2.56-0.00259-3.88-0.00225-3.57 0.00178-7.13 0.00678-10.7 0.0043-3.84 0.00286-7.68 0.0021-11.5-5.25e-4 -6.66 0.00262-13.3 0.00824-20 0.00811-9.63 0.0107-19.3 0.012-28.9 0.00219-15.6 0.00885-31.2 0.0183-46.9 0.00917-15.2 0.0163-30.3 0.0205-45.5 2.63e-4 -0.935 5.25e-4 -1.87 7.96e-4 -2.83 0.0013-4.69 0.00257-9.38 0.00381-14.1 0.0104-38.9 0.028-77.8 0.0503-117z" fill="#000100"/>
<path transform="translate(1037,679)" d="m0 0c18.9-0.257 37.8-0.451 56.7-0.57 8.78-0.0567 17.6-0.134 26.3-0.26 7.66-0.11 15.3-0.181 23-0.205 4.05-0.0143 8.11-0.0479 12.2-0.128 3.82-0.0749 7.63-0.0977 11.5-0.0812 1.4-0.00302 2.8-0.0248 4.2-0.0671 4.26-0.123 8.07-0.0583 12.1 1.31 3.22 3.3 5.09 6.84 7 11 0.996 1.58 0.996 1.58 2.01 3.18 6.67 10.6 13.3 21.2 19.6 32.1 1.86 3.21 3.76 6.39 5.76 9.52 0.378 0.592 0.756 1.18 1.14 1.79 1.01 1.58 2.04 3.15 3.07 4.72 1.57 3.06 2.02 4.36 1.4 7.73-1.33 2.5-2.69 4.78-4.25 7.12-0.909 1.41-1.82 2.82-2.73 4.23-0.486 0.745-0.973 1.49-1.47 2.26-2.77 4.27-5.47 8.58-8.17 12.9-1.03 1.64-2.07 3.27-3.1 4.91-0.439 0.694-0.878 1.39-1.33 2.1-0.311 0.492-0.622 0.984-0.943 1.49-3.46-1.15-3.73-1.71-5.54-4.71-0.49-0.801-0.979-1.6-1.48-2.43-0.529-0.884-1.06-1.77-1.6-2.68-0.839-1.38-0.839-1.38-1.69-2.79-1.23-2.03-2.46-4.06-3.68-6.09-2.11-3.5-4.23-6.99-6.35-10.5-2.19-3.6-4.37-7.19-6.56-10.8-1.36-2.24-2.74-4.47-4.14-6.68-1.95-3.35-1.95-3.35-3.36-7.04-1.78-4.14-3.08-6.44-6.59-9.31-8.03-2.3-16.7-1.54-25-1.31-2.32 0.017-4.65 0.0281-6.97 0.0332-5.68 0.0252-11.4 0.124-17 0.279 3.17 5.87 6.34 11.7 9.88 17.4 0.596 0.956 1.19 1.91 1.8 2.9 0.342 0.549 0.685 1.1 1.04 1.66 2.04 3.28 4.06 6.58 6.09 9.87 2.38 3.88 4.77 7.75 7.16 11.6 12.2 19.7 12.2 19.7 16.7 27.4 3.92 6.58 7.95 13.1 12 19.6 3.24 5.21 6.45 10.4 9.63 15.7 1.1 1.8 2.19 3.59 3.29 5.39 0.717 1.18 1.43 2.35 2.14 3.53 0.998 1.65 2 3.29 3.01 4.94 0.577 0.95 1.15 1.9 1.75 2.88 1.31 2.28 1.31 2.28 3.49 3.17 6.64-10.7 13.3-21.4 19.7-32.2 3.37-5.64 6.84-11.2 10.3-16.8 1.24-2.01 2.48-4.03 3.72-6.04 0.614-0.997 1.23-1.99 1.86-3.02 1.33-2.16 2.66-4.33 4-6.49 3.51-5.7 7.02-11.4 10.5-17.1 6.97-11.3 13.9-22.6 20.8-34 4.51-7.42 9.07-14.8 13.7-22.2 2.48-3.99 4.92-7.99 7.31-12 0.477-0.771 0.955-1.54 1.45-2.34 1.73-2.82 1.73-2.82 3.23-5.89 4.57-8.25 4.57-8.25 9.51-10 3.78-0.391 7.46-0.401 11.3-0.276 1.44 0.00339 2.88 0.00148 4.32-0.00531 3.89-0.00343 7.77 0.0669 11.7 0.151 4.07 0.0753 8.14 0.0821 12.2 0.0963 7.7 0.0372 15.4 0.136 23.1 0.256 8.77 0.134 17.5 0.2 26.3 0.26 18 0.125 36.1 0.336 54.1 0.604-0.957 1.76-1.91 3.52-2.87 5.28-0.8 1.47-0.8 1.47-1.62 2.97-1.72 3.12-3.51 6.17-5.36 9.21-0.681 1.12-1.36 2.24-2.06 3.4-0.717 1.17-1.43 2.35-2.15 3.52-0.752 1.23-1.5 2.47-2.26 3.7-5.06 8.3-10.2 16.6-15.3 24.8-2.94 4.74-5.85 9.49-8.7 14.3-4.74 7.95-9.61 15.8-14.5 23.7-4.45 7.23-8.88 14.5-13.3 21.7-4.79 7.9-9.65 15.7-14.6 23.6-5.56 8.86-11 17.8-16.4 26.8-8.24 13.8-16.7 27.5-25.1 41.1-4 6.45-7.96 12.9-11.9 19.4-4.99 8.22-10 16.4-15.1 24.6-3.96 6.38-7.87 12.8-11.8 19.2-5.58 9.2-11.3 18.3-17 27.4-3.37 5.37-6.68 10.8-9.89 16.3-1.26 1.99-1.26 1.99-3.26 3.99-2.53 0.246-2.53 0.246-5.78 0.241-1.23 0.00275-2.46 0.0055-3.73 0.00833-1.37-0.00708-2.74-0.0143-4.12-0.0218-1.44-5.64e-4 -2.88-2.48e-4 -4.32 8.85e-4 -3.91 5.75e-4 -7.83-0.0112-11.7-0.0251-4.09-0.0125-8.17-0.0137-12.3-0.0161-7.74-0.00622-15.5-0.0226-23.2-0.0427-8.81-0.0223-17.6-0.0333-26.4-0.0434-18.1-0.0209-36.3-0.0561-54.4-0.101 1.55-3.13 3.22-6.13 5.02-9.12 0.604-1.01 1.21-2.02 1.83-3.05 0.648-1.08 1.3-2.15 1.96-3.26 0.668-1.11 1.34-2.22 2.02-3.37 5.85-9.71 11.8-19.4 17.8-29 1.86-3 3.71-6.01 5.56-9.02 0.605-0.98 1.21-1.96 1.83-2.97 1.55-2.52 3.08-5.04 4.62-7.56 0.912-1.49 1.83-2.98 2.74-4.47 0.429-0.713 0.859-1.43 1.3-2.16 1.05-1.71 2.18-3.37 3.32-5.03h2c1.34 2.02 2.55 4.02 3.75 6.12 4.09 7.02 8.38 13.9 12.8 20.8 0.624 0.981 1.25 1.96 1.89 2.97 2.52 4.29 2.52 4.29 5.61 8.15 1.57 0.0933 3.14 0.117 4.7 0.114 1.5-1.13e-4 1.5-1.13e-4 3.03-2.29e-4 1.09-0.00516 2.18-0.0103 3.3-0.0156 1.11-0.00141 2.22-0.00283 3.36-0.00429 3.56-0.00562 7.11-0.0182 10.7-0.0309 2.4-0.00501 4.81-0.00958 7.21-0.0137 5.91-0.0111 11.8-0.0278 17.7-0.0488 0.461-1.17 0.461-1.17 0.931-2.37 0.975-2.4 2.06-4.48 3.4-6.68 0.463-0.768 0.926-1.54 1.4-2.33 0.752-1.23 0.752-1.23 1.52-2.49 0.526-0.869 1.05-1.74 1.59-2.63 1.72-2.83 3.44-5.66 5.16-8.49 1.19-1.96 2.37-3.91 3.55-5.87 5.58-9.19 11.2-18.4 16.9-27.5 6.33-10.1 12.5-20.2 18.7-30.4 5.99-9.89 12-19.8 18.1-29.6 5.77-9.29 11.4-18.6 17.1-28 8.85-14.6 17.8-29.1 26.8-43.5 4.36-7.03 8.64-14.1 12.9-21.2 0.724-1.2 0.724-1.2 1.46-2.43 3.88-6.47 7.68-13 11.5-19.5-6.83-0.187-13.7-0.272-20.5-0.287-2.32-0.017-4.64-0.0571-6.97-0.121-12.1-0.888-12.1-0.888-23.3 2.58-3.19 3.39-4.64 7.54-6.24 11.8-1.06 1.81-2.16 3.59-3.31 5.34-5.07 8.16-10.1 16.3-15 24.6-4.4 7.37-8.93 14.7-13.4 22-4.45 7.23-8.88 14.5-13.3 21.7-4.69 7.73-9.44 15.4-14.2 23.1-5.42 8.65-10.8 17.3-16.1 26.1-0.352 0.581-0.704 1.16-1.07 1.76-2.89 4.77-5.78 9.54-8.66 14.3-2.57 4.25-5.14 8.49-7.71 12.7-0.532 0.877-0.532 0.877-1.07 1.77-5.84 9.63-11.8 19.2-17.8 28.7-2.11 3.32-4.19 6.65-6.26 9.99-4.99-4.38-7.92-9.58-11.2-15.3-1.16-2-2.32-3.99-3.48-5.98-0.568-0.976-1.14-1.95-1.72-2.96-2.14-3.64-4.36-7.23-6.61-10.8-0.59-0.937-0.59-0.937-1.19-1.89-0.822-1.3-1.65-2.61-2.47-3.91-9.9-15.8-19.6-31.7-29.2-47.6-1.43-2.36-2.86-4.71-4.29-7.07-0.542-0.894-0.542-0.894-1.1-1.81-5.93-9.77-11.9-19.5-17.9-29.2-4.36-7.07-8.69-14.2-13-21.3-4.34-7.15-8.71-14.3-13.1-21.4-5.12-8.24-10.2-16.5-15.2-24.8-5.11-8.44-10.2-16.9-15.4-25.2-0.519-0.838-1.04-1.68-1.57-2.54-2.49-4.01-4.99-8-7.51-12-0.472-0.747-0.944-1.49-1.43-2.26-0.881-1.39-1.76-2.78-2.65-4.17-2.89-4.57-2.89-4.57-2.89-6.79z" fill="#000100"/>
<path transform="translate(906 686)" d="m0 0c1.26-0.00315 2.52-0.0063 3.82-0.00955 1.39 0.00179 2.78 0.00384 4.17 0.00613 1.42-6.74e-4 2.85-0.00164 4.27-0.0029 3-0.00148 6 6.79e-4 9 0.00534 3.81 0.00564 7.62 0.00246 11.4-0.00357 2.95-0.00365 5.9-0.00244 8.85 1.28e-4 1.4 6.59e-4 2.8-1.23e-4 4.2-0.00248 8.84-0.0116 17.6 0.317 26.4 1.14 0.356 0.923 0.712 1.85 1.08 2.8 6.4 16.6 12.8 33.1 19.5 49.6 0.268 0.656 0.536 1.31 0.811 1.99 1.07 2.63 2.15 5.26 3.23 7.9 2.75 6.73 5.45 13.5 8.15 20.2 0.483 1.21 0.966 2.42 1.46 3.67 1.29 3.24 2.58 6.47 3.88 9.71 2.88 7.23 5.77 14.5 8.66 21.7 0.337 0.843 0.674 1.69 1.02 2.55 5.27 13.2 10.6 26.3 15.9 39.5 3.96 9.74 7.86 19.5 11.7 29.3 4.37 11.2 8.92 22.4 13.5 33.5 6.36 15.5 12.7 30.9 18.8 46.5 1.18 2.97 2.36 5.93 3.54 8.9 0.653 1.65 1.31 3.3 1.96 4.95 0.288 0.719 0.576 1.44 0.873 2.18 1.13 2.88 1.88 5.01 1.88 8.13h-82c-4.61-11.5-9.21-23-13.5-34.7-0.488-1.31-0.977-2.61-1.47-3.92-1.02-2.73-2.04-5.45-3.06-8.18-1.59-4.27-3.19-8.53-4.79-12.8-0.399-1.07-0.399-1.07-0.806-2.15-0.534-1.43-1.07-2.85-1.6-4.28-0.791-2.11-1.58-4.23-2.37-6.34-4.04-10.8-8.1-21.6-12.2-32.4-0.274-0.723-0.548-1.45-0.83-2.19-1.3-3.42-2.59-6.84-3.89-10.3-1.47-3.87-2.93-7.74-4.4-11.6-2.68-7.09-5.37-14.2-8.07-21.2-0.454-1.19-0.908-2.39-1.38-3.62-1.35-3.55-2.71-7.09-4.06-10.6-0.401-1.05-0.802-2.11-1.22-3.19-1.1-2.86-2.22-5.71-3.35-8.56-0.34-0.889-0.681-1.78-1.03-2.69-0.331-0.818-0.662-1.64-1-2.48-0.284-0.718-0.567-1.44-0.86-2.17-1-1.86-1-1.86-3.23-2.39-0.619-0.086-1.24-0.172-1.88-0.261-4.3 5.63-6.47 11.9-8.92 18.5-0.464 1.23-0.927 2.46-1.41 3.72-1.23 3.27-2.46 6.54-3.68 9.81-1.22 3.25-2.44 6.5-3.67 9.76-1.44 3.82-2.87 7.64-4.31 11.5-2.69 7.18-5.4 14.3-8.13 21.5-4.07 10.7-8.1 21.4-12.1 32-6.93 18.4-13.9 36.8-20.9 55.2-0.339 0.891-0.679 1.78-1.03 2.7-0.951 2.5-1.9 4.99-2.85 7.49-0.276 0.725-0.552 1.45-0.837 2.2-0.715 1.87-1.44 3.75-2.16 5.62l-1.06 2.93c-0.938 2.07-0.938 2.07-2.94 3.07-2.56 0.093-5.1 0.126-7.66 0.114-1.19 2.19e-4 -1.19 2.19e-4 -2.39 4.43e-4 -2.62-6.98e-4 -5.24-0.00849-7.86-0.0163-1.81-0.00186-3.63-0.00329-5.44-0.00429-4.78-0.00382-9.55-0.0136-14.3-0.0247-4.87-0.0102-9.75-0.0148-14.6-0.0198-9.57-0.0107-19.1-0.0278-28.7-0.0488 0.788-4.26 2.11-8.09 3.74-12.1 0.277-0.688 0.553-1.38 0.838-2.08 0.908-2.26 1.82-4.51 2.74-6.76 0.638-1.58 1.27-3.16 1.91-4.74 1.3-3.23 2.6-6.45 3.9-9.67 2.68-6.65 5.34-13.3 8-20 0.982-2.45 1.96-4.91 2.95-7.36 0.482-1.21 0.965-2.41 1.46-3.65 27-67.6 27-67.6 27.8-69.6 0.54-1.35 1.08-2.7 1.62-4.05 1.42-3.54 2.83-7.08 4.25-10.6 3.11-7.78 6.22-15.6 9.33-23.3 8.66-21.7 17.3-43.3 26.1-65 3.11-7.65 6.2-15.3 9.26-23 0.323-0.809 0.645-1.62 0.977-2.45 1.54-3.87 3.08-7.74 4.62-11.6 0.55-1.38 1.1-2.76 1.65-4.14 0.475-1.2 0.951-2.4 1.44-3.63 4.38-10.4 4.38-10.4 11.3-10.4z" fill="#000100"/>
</svg>
